<mxfile host="app.diagrams.net" modified="2023-06-13T03:49:20.652Z" agent="Mozilla/5.0 (Windows NT 10.0; Win64; x64) AppleWebKit/537.36 (KHTML, like Gecko) Chrome/114.0.0.0 Safari/537.36" etag="rw9INynha58Zqe5qnBpX" version="21.3.8" type="device">
  <diagram name="Halaman-1" id="g2eRDNjs4HYHaGbjKyyY">
    <mxGraphModel dx="3520" dy="1848" grid="0" gridSize="10" guides="1" tooltips="1" connect="1" arrows="1" fold="1" page="1" pageScale="1" pageWidth="1169" pageHeight="827" math="0" shadow="0">
      <root>
        <mxCell id="0" />
        <mxCell id="1" parent="0" />
        <mxCell id="ORH4nDefUf_Ox2AR1vpU-1" value="APLIKASI KALKULATOR" style="text;strokeColor=none;fillColor=none;html=1;fontSize=24;fontStyle=1;verticalAlign=middle;align=center;" vertex="1" parent="1">
          <mxGeometry x="539" y="4" width="100" height="40" as="geometry" />
        </mxCell>
        <mxCell id="ORH4nDefUf_Ox2AR1vpU-10" style="edgeStyle=orthogonalEdgeStyle;rounded=0;orthogonalLoop=1;jettySize=auto;html=1;exitX=0.5;exitY=1;exitDx=0;exitDy=0;strokeWidth=2;" edge="1" parent="1" source="ORH4nDefUf_Ox2AR1vpU-2" target="ORH4nDefUf_Ox2AR1vpU-3">
          <mxGeometry relative="1" as="geometry">
            <Array as="points">
              <mxPoint x="587" y="221" />
              <mxPoint x="587" y="221" />
            </Array>
          </mxGeometry>
        </mxCell>
        <mxCell id="ORH4nDefUf_Ox2AR1vpU-2" value="&lt;font style=&quot;font-size: 14px;&quot;&gt;&lt;b&gt;MULAI&lt;/b&gt;&lt;/font&gt;" style="ellipse;whiteSpace=wrap;html=1;strokeWidth=2;" vertex="1" parent="1">
          <mxGeometry x="527" y="98" width="120" height="80" as="geometry" />
        </mxCell>
        <mxCell id="ORH4nDefUf_Ox2AR1vpU-11" style="edgeStyle=orthogonalEdgeStyle;rounded=0;orthogonalLoop=1;jettySize=auto;html=1;exitX=0.5;exitY=1;exitDx=0;exitDy=0;entryX=0.549;entryY=0.013;entryDx=0;entryDy=0;entryPerimeter=0;strokeWidth=2;" edge="1" parent="1" source="ORH4nDefUf_Ox2AR1vpU-3" target="ORH4nDefUf_Ox2AR1vpU-4">
          <mxGeometry relative="1" as="geometry">
            <Array as="points">
              <mxPoint x="579" y="305" />
              <mxPoint x="579" y="385" />
            </Array>
          </mxGeometry>
        </mxCell>
        <mxCell id="ORH4nDefUf_Ox2AR1vpU-3" value="&lt;b&gt;MASUKAN NILAI &lt;br&gt;PERTAMA&lt;/b&gt;" style="shape=parallelogram;perimeter=parallelogramPerimeter;whiteSpace=wrap;html=1;fixedSize=1;strokeWidth=2;" vertex="1" parent="1">
          <mxGeometry x="502" y="229" width="164" height="76" as="geometry" />
        </mxCell>
        <mxCell id="ORH4nDefUf_Ox2AR1vpU-12" style="edgeStyle=orthogonalEdgeStyle;rounded=0;orthogonalLoop=1;jettySize=auto;html=1;exitX=0.5;exitY=1;exitDx=0;exitDy=0;strokeWidth=2;" edge="1" parent="1" source="ORH4nDefUf_Ox2AR1vpU-4" target="ORH4nDefUf_Ox2AR1vpU-5">
          <mxGeometry relative="1" as="geometry" />
        </mxCell>
        <mxCell id="ORH4nDefUf_Ox2AR1vpU-4" value="&lt;b&gt;MASUKAN NILAI &lt;br&gt;KEDUA&lt;/b&gt;" style="shape=parallelogram;perimeter=parallelogramPerimeter;whiteSpace=wrap;html=1;fixedSize=1;strokeWidth=2;" vertex="1" parent="1">
          <mxGeometry x="497" y="384" width="164" height="76" as="geometry" />
        </mxCell>
        <mxCell id="ORH4nDefUf_Ox2AR1vpU-13" style="edgeStyle=orthogonalEdgeStyle;rounded=0;orthogonalLoop=1;jettySize=auto;html=1;exitX=0.5;exitY=1;exitDx=0;exitDy=0;strokeWidth=2;" edge="1" parent="1" source="ORH4nDefUf_Ox2AR1vpU-5" target="ORH4nDefUf_Ox2AR1vpU-6">
          <mxGeometry relative="1" as="geometry" />
        </mxCell>
        <mxCell id="ORH4nDefUf_Ox2AR1vpU-5" value="&lt;font style=&quot;font-size: 12px;&quot;&gt;&lt;b&gt;Penjumlahan = nilai&lt;br&gt;Pertama + nilai kedua&lt;/b&gt;&lt;/font&gt;" style="rounded=0;whiteSpace=wrap;html=1;strokeWidth=2;" vertex="1" parent="1">
          <mxGeometry x="499" y="512" width="160" height="85" as="geometry" />
        </mxCell>
        <mxCell id="ORH4nDefUf_Ox2AR1vpU-14" style="edgeStyle=orthogonalEdgeStyle;rounded=0;orthogonalLoop=1;jettySize=auto;html=1;exitX=0.5;exitY=1;exitDx=0;exitDy=0;entryX=0.5;entryY=0;entryDx=0;entryDy=0;strokeWidth=2;" edge="1" parent="1" source="ORH4nDefUf_Ox2AR1vpU-6" target="ORH4nDefUf_Ox2AR1vpU-7">
          <mxGeometry relative="1" as="geometry" />
        </mxCell>
        <mxCell id="ORH4nDefUf_Ox2AR1vpU-6" value="&lt;font style=&quot;font-size: 12px;&quot;&gt;&lt;b&gt;Pengurangan = nilai&lt;br&gt;Pertama - nilai kedua&lt;/b&gt;&lt;/font&gt;" style="rounded=0;whiteSpace=wrap;html=1;strokeWidth=2;" vertex="1" parent="1">
          <mxGeometry x="499" y="656" width="160" height="85" as="geometry" />
        </mxCell>
        <mxCell id="ORH4nDefUf_Ox2AR1vpU-15" style="edgeStyle=orthogonalEdgeStyle;rounded=0;orthogonalLoop=1;jettySize=auto;html=1;exitX=0.5;exitY=1;exitDx=0;exitDy=0;entryX=0.5;entryY=0;entryDx=0;entryDy=0;strokeWidth=2;" edge="1" parent="1" source="ORH4nDefUf_Ox2AR1vpU-7" target="ORH4nDefUf_Ox2AR1vpU-8">
          <mxGeometry relative="1" as="geometry" />
        </mxCell>
        <mxCell id="ORH4nDefUf_Ox2AR1vpU-7" value="&lt;font style=&quot;font-size: 12px;&quot;&gt;&lt;b&gt;Pembagian = nilai&lt;br&gt;Pertama / nilai kedua&lt;/b&gt;&lt;/font&gt;" style="rounded=0;whiteSpace=wrap;html=1;strokeWidth=2;" vertex="1" parent="1">
          <mxGeometry x="499" y="806" width="160" height="85" as="geometry" />
        </mxCell>
        <mxCell id="ORH4nDefUf_Ox2AR1vpU-17" style="edgeStyle=orthogonalEdgeStyle;rounded=0;orthogonalLoop=1;jettySize=auto;html=1;exitX=0.5;exitY=1;exitDx=0;exitDy=0;entryX=0.499;entryY=0.146;entryDx=0;entryDy=0;entryPerimeter=0;strokeWidth=2;" edge="1" parent="1" source="ORH4nDefUf_Ox2AR1vpU-8" target="ORH4nDefUf_Ox2AR1vpU-9">
          <mxGeometry relative="1" as="geometry">
            <Array as="points" />
          </mxGeometry>
        </mxCell>
        <mxCell id="ORH4nDefUf_Ox2AR1vpU-8" value="&lt;b&gt;Perkalian = nilai&lt;br&gt;Pertama x nilai kedua&lt;br&gt;&lt;/b&gt;" style="rounded=0;whiteSpace=wrap;html=1;strokeWidth=2;" vertex="1" parent="1">
          <mxGeometry x="499" y="956" width="160" height="85" as="geometry" />
        </mxCell>
        <mxCell id="ORH4nDefUf_Ox2AR1vpU-18" style="edgeStyle=orthogonalEdgeStyle;rounded=0;orthogonalLoop=1;jettySize=auto;html=1;exitX=0.002;exitY=0.657;exitDx=0;exitDy=0;entryX=0;entryY=0.5;entryDx=0;entryDy=0;strokeWidth=2;exitPerimeter=0;" edge="1" parent="1" source="ORH4nDefUf_Ox2AR1vpU-9" target="ORH4nDefUf_Ox2AR1vpU-3">
          <mxGeometry relative="1" as="geometry">
            <mxPoint x="229" y="220" as="targetPoint" />
            <Array as="points">
              <mxPoint x="358" y="1193" />
              <mxPoint x="358" y="267" />
            </Array>
          </mxGeometry>
        </mxCell>
        <mxCell id="ORH4nDefUf_Ox2AR1vpU-20" style="edgeStyle=orthogonalEdgeStyle;rounded=0;orthogonalLoop=1;jettySize=auto;html=1;exitX=0.5;exitY=1;exitDx=0;exitDy=0;entryX=0.5;entryY=0;entryDx=0;entryDy=0;" edge="1" parent="1" source="ORH4nDefUf_Ox2AR1vpU-9" target="ORH4nDefUf_Ox2AR1vpU-19">
          <mxGeometry relative="1" as="geometry" />
        </mxCell>
        <mxCell id="ORH4nDefUf_Ox2AR1vpU-9" value="&lt;font style=&quot;font-size: 14px;&quot;&gt;&lt;b&gt;&lt;br&gt;Clear&lt;/b&gt;&lt;/font&gt;" style="shape=manualInput;whiteSpace=wrap;html=1;rounded=1;strokeWidth=2;" vertex="1" parent="1">
          <mxGeometry x="510.5" y="1122" width="137" height="108" as="geometry" />
        </mxCell>
        <mxCell id="ORH4nDefUf_Ox2AR1vpU-19" value="&lt;b&gt;SELESAI&lt;/b&gt;" style="ellipse;whiteSpace=wrap;html=1;strokeWidth=2;" vertex="1" parent="1">
          <mxGeometry x="519" y="1325" width="120" height="80" as="geometry" />
        </mxCell>
      </root>
    </mxGraphModel>
  </diagram>
</mxfile>
